<svg xmlns="http://www.w3.org/2000/svg" viewBox="0 8.100000381469727 281.79998779296875 50.5" data-asc="0.928" width="281.79998779296875" height="50.5"><defs/><g><g fill="#000000"><g transform="translate(0, 0)"><path d="M18.10 46.40L17.45 43.25Q13.90 47.00 8.90 47.00Q4.95 47.00 2.48 44.95Q0 42.90 0 39.55Q0 35.20 3.23 32.78Q6.45 30.35 12.55 30.35Q14.75 30.35 16.95 30.55L16.95 29.60Q16.95 27.40 15.70 26.33Q14.45 25.25 11.75 25.25Q9.10 25.25 6.82 26.13Q4.55 27.00 1.90 28.95L1.90 23.05Q4.20 21.30 6.70 20.50Q9.20 19.70 12.20 19.70Q17.75 19.70 20.68 22.08Q23.60 24.45 23.60 29.00L23.60 40.60L24.70 46.40L18.10 46.40M6.60 39.05Q6.60 41.95 9.90 41.95Q11.80 41.95 13.50 41.18Q15.20 40.40 16.95 38.70L16.95 35.15L12.15 35.15Q9.25 35.15 7.93 36.00Q6.60 36.85 6.60 39.05ZM45.85 19.75Q48.80 19.75 51.08 21.43Q53.35 23.10 54.63 26.13Q55.90 29.15 55.90 33.10Q55.90 37.00 54.40 40.18Q52.90 43.35 50.28 45.18Q47.65 47.00 44.35 47.00Q40.35 47.00 37.25 45.35L37.25 58.00L30.65 58.00L30.65 26.10L29.55 20.30L35.60 20.30L36.65 24.00Q38.45 21.95 40.85 20.85Q43.25 19.75 45.85 19.75M43 41.55Q48.95 41.55 48.95 33.20Q48.95 29.35 47.78 27.25Q46.60 25.15 44.35 25.15Q40.75 25.15 37.25 28.65L37.25 40.75Q40.45 41.55 43 41.55ZM77.85 19.75Q80.80 19.75 83.08 21.43Q85.35 23.10 86.63 26.13Q87.90 29.15 87.90 33.10Q87.90 37.00 86.40 40.18Q84.90 43.35 82.28 45.18Q79.65 47.00 76.35 47.00Q72.35 47.00 69.25 45.35L69.25 58.00L62.65 58.00L62.65 26.10L61.55 20.30L67.60 20.30L68.65 24.00Q70.45 21.95 72.85 20.85Q75.25 19.75 77.85 19.75M75 41.55Q80.95 41.55 80.95 33.20Q80.95 29.35 79.78 27.25Q78.60 25.15 76.35 25.15Q72.75 25.15 69.25 28.65L69.25 40.75Q72.45 41.55 75 41.55ZM133.05 20.30L125.10 46.40L117.20 46.40L112.15 28.90L107.20 46.40L99.30 46.40L91.30 20.30L98 20.30L103.50 39.65L108.90 20.30L115.60 20.30L121.10 39.70L126.55 20.30L133.05 20.30ZM161.20 35.35L143.05 35.35Q143.45 38.35 145.27 39.95Q147.10 41.55 150.15 41.55Q152.40 41.55 155.02 40.73Q157.65 39.90 159.90 38.45L160.10 38.45L160.10 43.80Q158.10 45.35 155.52 46.18Q152.95 47.00 150.10 47.00Q146 47.00 142.95 45.35Q139.90 43.70 138.25 40.60Q136.60 37.50 136.60 33.35Q136.60 29.30 138.17 26.20Q139.75 23.10 142.60 21.40Q145.45 19.70 149.20 19.70Q152.85 19.70 155.57 21.35Q158.30 23.00 159.75 26.10Q161.20 29.20 161.20 33.35L161.20 35.35M149.20 25.00Q146.85 25.00 145.27 26.55Q143.70 28.10 143.15 30.85L154.40 30.85Q154 28.00 152.70 26.50Q151.40 25.00 149.20 25.00ZM181.90 19.70Q185.15 19.70 187.63 21.40Q190.10 23.10 191.50 26.23Q192.90 29.35 192.90 33.45Q192.90 39.80 189.63 43.38Q186.35 46.95 180.70 46.95Q179.05 46.95 177.60 46.60Q176.15 46.25 174.30 45.35L174.30 46.40L167.70 46.40L167.70 8.70L174.30 8.70L174.30 22.85Q177.45 19.70 181.90 19.70M180.05 41.40Q183.15 41.40 184.55 39.50Q185.95 37.60 185.95 33.35Q185.95 29.30 184.80 27.35Q183.65 25.40 181.20 25.40Q177.70 25.40 174.30 28.60L174.30 40.80Q175.65 41.20 176.95 41.30Q178.25 41.40 180.05 41.40ZM203 16.40Q201.30 16.40 200.10 15.25Q198.90 14.10 198.90 12.25Q198.90 10.40 200.10 9.25Q201.30 8.10 203 8.10Q204.70 8.10 205.90 9.25Q207.10 10.40 207.10 12.25Q207.10 14.10 205.90 15.25Q204.70 16.40 203 16.40M197.25 58.60Q195.45 58.60 194.25 58.28Q193.05 57.95 192 57.20L192 51.75Q193.15 52.50 194.25 52.80Q195.35 53.10 196.65 53.10Q198.25 53.10 198.97 52.25Q199.70 51.40 199.70 49.40L199.70 20.30L206.30 20.30L206.30 49.40Q206.30 58.60 197.25 58.60ZM225.70 47.00Q221.75 47.00 218.75 45.33Q215.75 43.65 214.13 40.55Q212.50 37.45 212.50 33.35Q212.50 29.25 214.13 26.15Q215.75 23.05 218.75 21.38Q221.75 19.70 225.70 19.70Q229.65 19.70 232.65 21.38Q235.65 23.05 237.27 26.15Q238.90 29.25 238.90 33.35Q238.90 37.45 237.27 40.55Q235.65 43.65 232.65 45.33Q229.65 47.00 225.70 47.00M225.70 41.55Q228.65 41.55 230.30 39.43Q231.95 37.30 231.95 33.35Q231.95 29.35 230.30 27.25Q228.65 25.15 225.70 25.15Q222.75 25.15 221.10 27.25Q219.45 29.35 219.45 33.35Q219.45 37.30 221.10 39.43Q222.75 41.55 225.70 41.55ZM255.70 35.45L252.70 38.75L252.70 46.40L246.10 46.40L246.10 8.70L252.70 8.70L252.70 30.80L261.80 20.30L269.30 20.30L259.80 30.85L269.90 46.40L262.35 46.40L255.70 35.45ZM277.70 16.40Q276 16.40 274.80 15.25Q273.60 14.10 273.60 12.25Q273.60 10.40 274.80 9.25Q276 8.10 277.70 8.10Q279.40 8.10 280.60 9.25Q281.80 10.40 281.80 12.25Q281.80 14.10 280.60 15.25Q279.40 16.40 277.70 16.40M281 20.30L281 46.40L274.40 46.40L274.40 20.35L281 20.30Z"/></g></g></g></svg>