<svg xmlns="http://www.w3.org/2000/svg" viewBox="0 10.449999809265137 270 45.79999923706055" data-asc="0.935" width="270" height="45.79999923706055">
  <defs>
    <linearGradient id="orbGradient" x1="0%" y1="0%" x2="100%" y2="100%">
      <stop offset="0%" style="stop-color:#FF8A4C;stop-opacity:1" />
      <stop offset="25%" style="stop-color:#E85A7F;stop-opacity:1" />
      <stop offset="50%" style="stop-color:#B84A8A;stop-opacity:1" />
      <stop offset="75%" style="stop-color:#8F386D;stop-opacity:1" />
      <stop offset="100%" style="stop-color:#6A2C5A;stop-opacity:1" />
    </linearGradient>
  </defs>
  <g>
    <g fill="url(#orbGradient)">
      <g transform="translate(0, 0)">
        <path d="M9.25 47.25Q6.65 47.25 4.55 46.23Q2.45 45.20 1.23 43.48Q0 41.75 0 39.60Q0 36.10 2.85 34.02Q5.70 31.95 10.30 31.25L17.15 30.25L17.15 29.20Q17.15 27.10 16.10 25.95Q15.05 24.80 12.50 24.80Q10.70 24.80 9.58 25.52Q8.45 26.25 7.90 27.45Q7.50 28.10 6.75 28.10L2.80 28.10Q2.25 28.10 1.98 27.80Q1.70 27.50 1.70 27Q1.75 26.20 2.38 25.05Q3.00 23.90 4.28 22.82Q5.55 21.75 7.60 21Q9.65 20.25 12.55 20.25Q15.70 20.25 17.88 21.02Q20.05 21.80 21.35 23.10Q22.65 24.40 23.25 26.15Q23.85 27.90 23.85 29.85L23.85 45.55Q23.85 46.05 23.50 46.40Q23.15 46.75 22.65 46.75L18.60 46.75Q18.05 46.75 17.73 46.40Q17.40 46.05 17.40 45.55L17.40 43.60Q16.75 44.50 15.65 45.35Q14.55 46.20 12.98 46.73Q11.40 47.25 9.25 47.25M10.95 42.50Q12.70 42.50 14.13 41.75Q15.55 41 16.38 39.42Q17.20 37.85 17.20 35.45L17.20 34.40L12.20 35.20Q9.25 35.65 7.80 36.65Q6.35 37.65 6.35 39.10Q6.35 40.20 7.03 40.98Q7.70 41.75 8.75 42.13Q9.80 42.50 10.95 42.50ZM31.50 56.25Q31 56.25 30.65 55.90Q30.30 55.55 30.30 55.05L30.30 21.95Q30.30 21.45 30.65 21.10Q31 20.75 31.50 20.75L35.45 20.75Q36 20.75 36.33 21.10Q36.65 21.45 36.65 21.95L36.65 23.95Q37.85 22.35 39.80 21.30Q41.75 20.25 44.65 20.25Q47.30 20.25 49.25 21.10Q51.20 21.95 52.50 23.52Q53.80 25.10 54.50 27.25Q55.20 29.40 55.30 32Q55.35 32.85 55.35 33.75Q55.35 34.65 55.30 35.55Q55.25 38.05 54.55 40.17Q53.85 42.30 52.53 43.88Q51.20 45.45 49.25 46.35Q47.30 47.25 44.65 47.25Q41.95 47.25 40.05 46.27Q38.15 45.30 36.95 43.70L36.95 55.05Q36.95 55.55 36.63 55.90Q36.30 56.25 35.75 56.25L31.50 56.25M42.80 41.90Q44.95 41.90 46.15 40.98Q47.35 40.05 47.90 38.55Q48.45 37.05 48.55 35.25Q48.60 33.75 48.55 32.25Q48.45 30.45 47.90 28.95Q47.35 27.45 46.15 26.52Q44.95 25.60 42.80 25.60Q40.75 25.60 39.48 26.55Q38.20 27.50 37.63 28.97Q37.05 30.45 36.95 32Q36.90 32.90 36.90 33.90Q36.90 34.90 36.95 35.85Q37 37.35 37.65 38.73Q38.30 40.10 39.55 41Q40.80 41.90 42.80 41.90ZM62.20 56.25Q61.70 56.25 61.35 55.90Q61.00 55.55 61.00 55.05L61.00 21.95Q61.00 21.45 61.35 21.10Q61.70 20.75 62.20 20.75L66.15 20.75Q66.70 20.75 67.03 21.10Q67.35 21.45 67.35 21.95L67.35 23.95Q68.55 22.35 70.50 21.30Q72.45 20.25 75.35 20.25Q78 20.25 79.95 21.10Q81.90 21.95 83.20 23.52Q84.50 25.10 85.20 27.25Q85.90 29.40 86 32Q86.05 32.85 86.05 33.75Q86.05 34.65 86 35.55Q85.95 38.05 85.25 40.17Q84.55 42.30 83.23 43.88Q81.90 45.45 79.95 46.35Q78 47.25 75.35 47.25Q72.65 47.25 70.75 46.27Q68.85 45.30 67.65 43.70L67.65 55.05Q67.65 55.55 67.33 55.90Q67 56.25 66.45 56.25L62.20 56.25M73.50 41.90Q75.65 41.90 76.85 40.98Q78.05 40.05 78.60 38.55Q79.15 37.05 79.25 35.25Q79.30 33.75 79.25 32.25Q79.15 30.45 78.60 28.95Q78.05 27.45 76.85 26.52Q75.65 25.60 73.50 25.60Q71.45 25.60 70.18 26.55Q68.90 27.50 68.33 28.97Q67.75 30.45 67.65 32Q67.60 32.90 67.60 33.90Q67.60 34.90 67.65 35.85Q67.70 37.35 68.35 38.73Q69 40.10 70.25 41Q71.50 41.90 73.50 41.90ZM98.75 46.75Q98.05 46.75 97.70 46.40Q97.35 46.05 97.10 45.50L89.95 22.30Q89.90 22.05 89.90 21.85Q89.90 21.40 90.23 21.07Q90.55 20.75 90.95 20.75L94.65 20.75Q95.25 20.75 95.60 21.07Q95.95 21.40 96.00 21.70L100.90 38.25L106.10 21.85Q106.20 21.50 106.55 21.13Q106.90 20.75 107.60 20.75L110.10 20.75Q110.80 20.75 111.15 21.13Q111.50 21.50 111.60 21.85L116.80 38.25L121.70 21.70Q121.75 21.40 122.08 21.07Q122.40 20.75 123 20.75L126.70 20.75Q127.15 20.75 127.48 21.07Q127.80 21.40 127.80 21.85Q127.80 22.05 127.70 22.30L120.55 45.50Q120.40 46.05 120.03 46.40Q119.65 46.75 118.95 46.75L115.70 46.75Q115.05 46.75 114.63 46.40Q114.20 46.05 114.05 45.50L108.85 29.70L103.65 45.50Q103.45 46.05 103.08 46.40Q102.70 46.75 101.95 46.75L98.75 46.75ZM143.85 47.25Q138.30 47.25 135.05 44.05Q131.80 40.85 131.55 34.95Q131.50 34.45 131.50 33.67Q131.50 32.90 131.55 32.45Q131.75 28.65 133.28 25.92Q134.80 23.20 137.50 21.72Q140.20 20.25 143.85 20.25Q147.90 20.25 150.65 21.92Q153.40 23.60 154.80 26.57Q156.20 29.55 156.20 33.45L156.20 34.50Q156.20 35 155.85 35.35Q155.50 35.70 154.95 35.70L138.35 35.70Q138.35 35.70 138.35 35.85Q138.35 36 138.35 36.10Q138.40 37.85 139.03 39.33Q139.65 40.80 140.88 41.70Q142.10 42.60 143.80 42.60Q145.20 42.60 146.15 42.17Q147.10 41.75 147.70 41.20Q148.30 40.65 148.55 40.30Q149.00 39.70 149.28 39.58Q149.55 39.45 150.10 39.45L154.40 39.45Q154.90 39.45 155.23 39.75Q155.55 40.05 155.50 40.50Q155.45 41.30 154.68 42.45Q153.90 43.60 152.45 44.70Q151.00 45.80 148.83 46.52Q146.65 47.25 143.85 47.25M138.35 31.50L149.40 31.50L149.40 31.35Q149.40 29.40 148.75 27.93Q148.10 26.45 146.85 25.63Q145.60 24.80 143.85 24.80Q142.10 24.80 140.85 25.63Q139.60 26.45 138.98 27.93Q138.35 29.40 138.35 31.35L138.35 31.50ZM175.90 47.25Q173.00 47.25 171.08 46.25Q169.15 45.25 167.90 43.70L167.90 45.55Q167.90 46.05 167.58 46.40Q167.25 46.75 166.70 46.75L162.75 46.75Q162.25 46.75 161.90 46.40Q161.55 46.05 161.55 45.55L161.55 12.45Q161.55 11.95 161.90 11.60Q162.25 11.25 162.75 11.25L167.00 11.25Q167.55 11.25 167.88 11.60Q168.20 11.95 168.20 12.45L168.20 23.55Q169.45 22.10 171.33 21.17Q173.20 20.25 175.90 20.25Q178.55 20.25 180.50 21.15Q182.45 22.05 183.78 23.67Q185.10 25.30 185.80 27.45Q186.50 29.60 186.55 32.10Q186.60 33 186.60 33.73Q186.60 34.45 186.55 35.35Q186.45 37.95 185.75 40.13Q185.05 42.30 183.75 43.90Q182.45 45.50 180.50 46.38Q178.55 47.25 175.90 47.25M174.05 41.90Q176.20 41.90 177.40 40.98Q178.60 40.05 179.15 38.55Q179.70 37.05 179.80 35.25Q179.85 33.75 179.80 32.25Q179.70 30.45 179.15 28.95Q178.60 27.45 177.40 26.52Q176.20 25.60 174.05 25.60Q172.05 25.60 170.80 26.50Q169.55 27.40 168.90 28.77Q168.25 30.15 168.20 31.65Q168.15 32.55 168.15 33.58Q168.15 34.60 168.20 35.50Q168.30 37.05 168.88 38.52Q169.45 40 170.73 40.95Q172.00 41.90 174.05 41.90ZM187.85 56.25Q187.35 56.25 187.00 55.90Q186.65 55.55 186.65 55.05L186.65 52.15Q186.65 51.65 187.00 51.30Q187.35 50.95 187.85 50.95L189.15 50.95Q190.70 50.95 191.45 50.40Q192.20 49.85 192.45 48.88Q192.70 47.90 192.70 46.70L192.70 21.95Q192.70 21.45 193.05 21.10Q193.40 20.75 193.90 20.75L198.25 20.75Q198.75 20.75 199.10 21.10Q199.45 21.45 199.45 21.95L199.45 46.80Q199.45 49.75 198.38 51.85Q197.30 53.95 195.18 55.10Q193.05 56.25 189.75 56.25L187.85 56.25M193.70 16.45Q193.15 16.45 192.83 16.10Q192.50 15.75 192.50 15.25L192.50 11.65Q192.50 11.15 192.83 10.80Q193.15 10.45 193.70 10.45L198.40 10.45Q198.95 10.45 199.30 10.80Q199.65 11.15 199.65 11.65L199.65 15.25Q199.65 15.75 199.30 16.10Q198.95 16.45 198.40 16.45L193.70 16.45ZM217.60 47.25Q213.60 47.25 210.88 45.85Q208.15 44.45 206.73 41.90Q205.30 39.35 205.10 35.95Q205.05 35.05 205.05 33.75Q205.05 32.45 205.10 31.55Q205.30 28.10 206.78 25.57Q208.25 23.05 210.98 21.65Q213.70 20.25 217.60 20.25Q221.50 20.25 224.23 21.65Q226.95 23.05 228.43 25.57Q229.90 28.10 230.10 31.55Q230.15 32.45 230.15 33.75Q230.15 35.05 230.10 35.95Q229.90 39.35 228.48 41.90Q227.05 44.45 224.33 45.85Q221.60 47.25 217.60 47.25M217.60 42.30Q220.25 42.30 221.70 40.63Q223.15 38.95 223.30 35.70Q223.35 34.95 223.35 33.75Q223.35 32.55 223.30 31.80Q223.15 28.55 221.70 26.88Q220.25 25.20 217.60 25.20Q214.95 25.20 213.50 26.88Q212.05 28.55 211.90 31.80Q211.85 32.55 211.85 33.75Q211.85 34.95 211.90 35.70Q212.05 38.95 213.50 40.63Q214.95 42.30 217.60 42.30ZM236.95 46.75Q236.45 46.75 236.10 46.40Q235.75 46.05 235.75 45.55L235.75 12.45Q235.75 11.95 236.10 11.60Q236.45 11.25 236.95 11.25L241 11.25Q241.55 11.25 241.88 11.60Q242.20 11.95 242.20 12.45L242.20 29.55L250.60 21.60Q251.10 21.20 251.43 20.97Q251.75 20.75 252.45 20.75L257.10 20.75Q257.60 20.75 257.90 21.05Q258.20 21.35 258.20 21.85Q258.20 22.05 258.10 22.30Q258 22.55 257.70 22.75L247.40 32.40L258.95 44.80Q259.45 45.30 259.45 45.65Q259.45 46.15 259.13 46.45Q258.80 46.75 258.35 46.75L253.60 46.75Q252.85 46.75 252.53 46.52Q252.20 46.30 251.75 45.90L242.20 35.85L242.20 45.55Q242.20 46.05 241.88 46.40Q241.55 46.75 241 46.75L236.95 46.75ZM264.40 46.75Q263.90 46.75 263.55 46.40Q263.20 46.05 263.20 45.55L263.20 21.95Q263.20 21.45 263.55 21.10Q263.90 20.75 264.40 20.75L268.55 20.75Q269.10 20.75 269.42 21.10Q269.75 21.45 269.75 21.95L269.75 45.55Q269.75 46.05 269.42 46.40Q269.10 46.75 268.55 46.75L264.40 46.75M264.20 16.45Q263.70 16.45 263.35 16.10Q263 15.75 263 15.25L263 11.65Q263 11.15 263.35 10.80Q263.70 10.45 264.20 10.45L268.75 10.45Q269.30 10.45 269.65 10.80Q270 11.15 270 11.65L270 15.25Q270 15.75 269.65 16.10Q269.30 16.45 268.75 16.45L264.20 16.45Z"/>
      </g>
    </g>
  </g>
</svg>