<svg xmlns="http://www.w3.org/2000/svg" viewBox="0.06000000238418579 19.5 270.739990234375 31" data-asc="0.99" width="270.739990234375" height="31"><defs/><g fill="#000000"><g transform="translate(0, 0)"><path d="M5.90 45.85L6.70 46.15L8.60 40.75Q8.60 40.75 8.57 40.75Q8.55 40.75 8.55 40.75L14.95 23.65Q15.05 23.55 14.78 23.72Q14.50 23.90 14.60 23.90L17.15 23.90Q17.25 23.90 17 23.72Q16.75 23.55 16.80 23.65L23.20 40.75Q23.20 40.75 23.18 40.75Q23.15 40.75 23.15 40.75L25 46.15L25.80 45.85L23.95 40.45Q23.95 40.45 23.95 40.45Q23.95 40.45 23.90 40.45L17.50 23.35Q17.40 23.10 17.15 23.10L14.60 23.10Q14.35 23.10 14.25 23.35L7.85 40.45Q7.80 40.45 7.80 40.45Q7.80 40.45 7.80 40.45L5.90 45.85M23.55 41L23.55 40.20L8.20 40.20L8.20 41L23.55 41M12.60 20.25L12 20.75L14.30 23.75Q14.30 23.80 14.25 23.65Q14.20 23.50 14.20 23.55L15.30 29.40Q15.40 29.75 15.72 29.75Q16.05 29.75 16.10 29.45L17.55 23.60Q17.55 23.55 17.48 23.67Q17.40 23.80 17.45 23.75L20.10 20.75L19.50 20.25L16.85 23.25Q16.80 23.30 16.80 23.32Q16.80 23.35 16.75 23.40L15.30 29.25Q15.25 29.55 15.70 29.57Q16.15 29.60 16.10 29.30L15 23.45Q15 23.35 14.97 23.32Q14.95 23.30 14.90 23.25L12.60 20.25M12.80 37.95L12.30 37.25L7.95 40.25Q7.85 40.35 7.83 40.52Q7.80 40.70 7.90 40.85L10.30 43.80L10.90 43.30L8.50 40.35Q8.40 40.20 8.35 40.60Q8.30 41 8.45 40.95L12.80 37.95M19.05 37.25L18.65 37.95L23.35 40.95Q23.50 41 23.45 40.60Q23.40 40.20 23.25 40.35L20.50 43.30L21.10 43.80L23.85 40.85Q23.95 40.75 23.95 40.55Q23.95 40.35 23.75 40.25L19.05 37.25M10.15 49.80L10.65 49.20L6.55 45.70Q6.50 45.60 6.35 45.58Q6.20 45.55 6.10 45.65L0.25 49.15L0.65 49.85L6.50 46.35Q6.60 46.25 6.28 46.23Q5.95 46.20 6.05 46.30L10.15 49.80M31.45 49.85L31.85 49.15L25.60 45.65Q25.50 45.55 25.38 45.58Q25.25 45.60 25.15 45.70L20.75 49.20L21.25 49.80L25.65 46.30Q25.75 46.20 25.43 46.23Q25.10 46.25 25.20 46.35L31.45 49.85M31.95 49.25Q31.45 48.60 30.90 47.70Q30.35 46.80 29.63 45.25Q28.90 43.70 27.82 41.10Q26.75 38.50 25.15 34.40Q23.65 30.50 22.73 28.05Q21.80 25.60 21.30 24.15Q20.80 22.70 20.55 21.88Q20.30 21.05 20.20 20.45Q20.15 20.30 20.05 20.20Q19.95 20.10 19.80 20.10L12.30 20.10Q12.15 20.10 12.03 20.20Q11.90 20.30 11.90 20.50Q11.85 21.10 11.63 21.92Q11.40 22.75 10.85 24.20Q10.30 25.65 9.35 28.10Q8.40 30.55 6.95 34.40Q5.35 38.50 4.28 41.10Q3.20 43.70 2.48 45.25Q1.75 46.80 1.20 47.70Q0.65 48.60 0.15 49.25Q0 49.45 0.10 49.67Q0.20 49.90 0.45 49.90L10.40 49.90Q10.65 49.90 10.75 49.73Q10.85 49.55 10.80 49.35Q10.45 48.45 10.40 47.27Q10.35 46.10 11 43.65L10.60 43.95L20.80 43.95L20.40 43.65Q21.10 46.10 21.03 47.27Q20.95 48.45 20.60 49.35Q20.55 49.55 20.68 49.73Q20.80 49.90 21 49.90L31.65 49.90Q31.90 49.90 32 49.67Q32.10 49.45 31.95 49.25M15.35 29.50L18.50 37.75L18.85 37.20L12.55 37.20L12.90 37.75L16.05 29.50L15.35 29.50M31.35 49.75L31.65 49.10L21 49.10L21.40 49.65Q21.75 48.65 21.82 47.35Q21.90 46.05 21.20 43.45Q21.15 43.30 21.05 43.23Q20.95 43.15 20.80 43.15L10.60 43.15Q10.45 43.15 10.35 43.23Q10.25 43.30 10.20 43.45Q9.55 46.05 9.60 47.35Q9.65 48.65 10 49.65L10.40 49.10L0.45 49.10L0.75 49.75Q1.25 49.10 1.80 48.20Q2.35 47.30 3.10 45.73Q3.85 44.15 4.95 41.50Q6.05 38.85 7.65 34.70Q9.20 30.75 10.17 28.25Q11.15 25.75 11.68 24.27Q12.20 22.80 12.43 21.97Q12.65 21.15 12.70 20.50L12.30 20.90L19.80 20.90L19.40 20.55Q19.50 21.20 19.75 22.02Q20 22.85 20.53 24.32Q21.05 25.80 22 28.30Q22.95 30.80 24.45 34.70Q26.05 38.85 27.13 41.50Q28.20 44.15 28.98 45.73Q29.75 47.30 30.30 48.20Q30.85 49.10 31.35 49.75M16.05 29.20Q16 28.95 15.72 28.95Q15.45 28.95 15.35 29.20L12.20 37.45Q12.15 37.65 12.25 37.83Q12.35 38 12.55 38L18.85 38Q19.10 38 19.20 37.83Q19.30 37.65 19.20 37.45L16.05 29.20ZM38.05 46.40L38.85 46.40L38.85 23.50Q38.85 23.35 38.58 23.63Q38.30 23.90 38.45 23.90L45.95 23.90Q45.95 23.90 45.95 23.90Q45.95 23.90 45.95 23.90Q49.50 23.90 51.53 25.77Q53.55 27.65 53.55 30.75Q53.55 30.75 53.55 30.75Q53.55 30.75 53.55 30.75Q53.55 33.85 51.53 35.73Q49.50 37.60 45.95 37.60Q45.95 37.60 45.95 37.60Q45.95 37.60 45.95 37.60L38.45 37.60L38.45 38.40L45.95 38.40Q45.95 38.40 45.95 38.40Q45.95 38.40 45.95 38.40Q49.90 38.40 52.13 36.27Q54.35 34.15 54.35 30.75Q54.35 30.75 54.35 30.75Q54.35 30.75 54.35 30.75Q54.35 27.35 52.13 25.22Q49.90 23.10 45.95 23.10Q45.95 23.10 45.95 23.10Q45.95 23.10 45.95 23.10L38.45 23.10Q38.30 23.10 38.18 23.22Q38.05 23.35 38.05 23.50L38.05 46.40M43 49.85L43.40 49.15L38.65 46.05Q38.60 46 38.48 46Q38.35 46 38.25 46.05L33.45 49.15L33.85 49.85L38.65 46.75Q38.75 46.65 38.45 46.65Q38.15 46.65 38.25 46.75L43 49.85M42.10 35.35L41.60 34.75L38.20 37.70Q38.05 37.80 38.05 38Q38.05 38.20 38.20 38.30L41.65 41.30L42.15 40.70L38.70 37.70Q38.60 37.60 38.60 38Q38.60 38.40 38.70 38.30L42.10 35.35M33.85 20.15L33.45 20.85L38.25 23.85Q38.25 23.85 38.23 23.82Q38.20 23.80 38.20 23.80L41.80 26.75L42.30 26.15L38.70 23.20Q38.70 23.20 38.70 23.17Q38.70 23.15 38.65 23.15L33.85 20.15M33.65 49.90L43.20 49.90Q43.45 49.90 43.55 49.70Q43.65 49.50 43.55 49.30Q43.25 48.65 42.98 47.80Q42.70 46.95 42.55 45.38Q42.40 43.80 42.30 41L41.90 41.40L45.90 41.40Q49.60 41.40 52.28 40.05Q54.95 38.70 56.40 36.27Q57.85 33.85 57.85 30.70Q57.85 27.50 56.40 25.13Q54.95 22.75 52.28 21.42Q49.60 20.10 45.90 20.10L33.65 20.10Q33.45 20.10 33.33 20.27Q33.20 20.45 33.30 20.70Q33.70 21.40 33.95 22.40Q34.20 23.40 34.33 25.15Q34.45 26.90 34.53 29.75Q34.60 32.60 34.60 37.05Q34.60 40.40 34.50 42.52Q34.40 44.65 34.25 45.95Q34.10 47.25 33.85 48Q33.60 48.75 33.30 49.30Q33.20 49.50 33.33 49.70Q33.45 49.90 33.65 49.90M50 30.80Q50 32.60 48.95 33.63Q47.90 34.65 46 34.65L41.85 34.65L42.25 35.05Q42.25 32.15 42.33 30.05Q42.40 27.95 42.45 26.45L42.05 26.85L46 26.85Q47.90 26.85 48.95 27.92Q50 29 50 30.80M33.65 49.10L34 49.70Q34.30 49.10 34.55 48.33Q34.80 47.55 35 46.23Q35.20 44.90 35.30 42.70Q35.40 40.50 35.40 37.05Q35.40 32.50 35.33 29.57Q35.25 26.65 35.08 24.88Q34.90 23.10 34.65 22.07Q34.40 21.05 34 20.30L33.65 20.90L45.90 20.90Q51.10 20.90 54.08 23.57Q57.05 26.25 57.05 30.70Q57.05 35.15 54.08 37.88Q51.10 40.60 45.90 40.60L41.90 40.60Q41.70 40.60 41.60 40.73Q41.50 40.85 41.50 41Q41.60 43.90 41.78 45.55Q41.95 47.20 42.25 48.10Q42.55 49 42.85 49.70L43.20 49.10L33.65 49.10M50.80 30.80Q50.80 28.70 49.55 27.38Q48.30 26.05 46 26.05L42.05 26.05Q41.90 26.05 41.78 26.15Q41.65 26.25 41.65 26.45Q41.60 27.95 41.53 30.05Q41.45 32.15 41.45 35.05Q41.45 35.20 41.58 35.33Q41.70 35.45 41.85 35.45L46 35.45Q48.30 35.45 49.55 34.17Q50.80 32.90 50.80 30.80ZM65.35 46.40L66.15 46.40L66.15 23.50Q66.15 23.35 65.88 23.63Q65.60 23.90 65.75 23.90L73.25 23.90Q73.25 23.90 73.25 23.90Q73.25 23.90 73.25 23.90Q76.80 23.90 78.83 25.77Q80.85 27.65 80.85 30.75Q80.85 30.75 80.85 30.75Q80.85 30.75 80.85 30.75Q80.85 33.85 78.83 35.73Q76.80 37.60 73.25 37.60Q73.25 37.60 73.25 37.60Q73.25 37.60 73.25 37.60L65.75 37.60L65.75 38.40L73.25 38.40Q73.25 38.40 73.25 38.40Q73.25 38.40 73.25 38.40Q77.20 38.40 79.43 36.27Q81.65 34.15 81.65 30.75Q81.65 30.75 81.65 30.75Q81.65 30.75 81.65 30.75Q81.65 27.35 79.43 25.22Q77.20 23.10 73.25 23.10Q73.25 23.10 73.25 23.10Q73.25 23.10 73.25 23.10L65.75 23.10Q65.60 23.10 65.48 23.22Q65.35 23.35 65.35 23.50L65.35 46.40M70.30 49.85L70.70 49.15L65.95 46.05Q65.90 46 65.78 46Q65.65 46 65.55 46.05L60.75 49.15L61.15 49.85L65.95 46.75Q66.05 46.65 65.75 46.65Q65.45 46.65 65.55 46.75L70.30 49.85M69.40 35.35L68.90 34.75L65.50 37.70Q65.35 37.80 65.35 38Q65.35 38.20 65.50 38.30L68.95 41.30L69.45 40.70L66 37.70Q65.90 37.60 65.90 38Q65.90 38.40 66 38.30L69.40 35.35M61.15 20.15L60.75 20.85L65.55 23.85Q65.55 23.85 65.53 23.82Q65.50 23.80 65.50 23.80L69.10 26.75L69.60 26.15L66 23.20Q66 23.20 66 23.17Q66 23.15 65.95 23.15L61.15 20.15M60.95 49.90L70.50 49.90Q70.75 49.90 70.85 49.70Q70.95 49.50 70.85 49.30Q70.55 48.65 70.28 47.80Q70 46.95 69.85 45.38Q69.70 43.80 69.60 41L69.20 41.40L73.20 41.40Q76.90 41.40 79.58 40.05Q82.25 38.70 83.70 36.27Q85.15 33.85 85.15 30.70Q85.15 27.50 83.70 25.13Q82.25 22.75 79.58 21.42Q76.90 20.10 73.20 20.10L60.95 20.10Q60.75 20.10 60.63 20.27Q60.50 20.45 60.60 20.70Q61 21.40 61.25 22.40Q61.50 23.40 61.63 25.15Q61.75 26.90 61.83 29.75Q61.90 32.60 61.90 37.05Q61.90 40.40 61.80 42.52Q61.70 44.65 61.55 45.95Q61.40 47.25 61.15 48Q60.90 48.75 60.60 49.30Q60.50 49.50 60.63 49.70Q60.75 49.90 60.95 49.90M77.30 30.80Q77.30 32.60 76.25 33.63Q75.20 34.65 73.30 34.65L69.15 34.65L69.55 35.05Q69.55 32.15 69.63 30.05Q69.70 27.95 69.75 26.45L69.35 26.85L73.30 26.85Q75.20 26.85 76.25 27.92Q77.30 29 77.30 30.80M60.95 49.10L61.30 49.70Q61.60 49.10 61.85 48.33Q62.10 47.55 62.30 46.23Q62.50 44.90 62.60 42.70Q62.70 40.50 62.70 37.05Q62.70 32.50 62.63 29.57Q62.55 26.65 62.38 24.88Q62.20 23.10 61.95 22.07Q61.70 21.05 61.30 20.30L60.95 20.90L73.20 20.90Q78.40 20.90 81.38 23.57Q84.35 26.25 84.35 30.70Q84.35 35.15 81.38 37.88Q78.40 40.60 73.20 40.60L69.20 40.60Q69 40.60 68.90 40.73Q68.80 40.85 68.80 41Q68.90 43.90 69.08 45.55Q69.25 47.20 69.55 48.10Q69.85 49 70.15 49.70L70.50 49.10L60.95 49.10M78.10 30.80Q78.10 28.70 76.85 27.38Q75.60 26.05 73.30 26.05L69.35 26.05Q69.20 26.05 69.08 26.15Q68.95 26.25 68.95 26.45Q68.90 27.95 68.83 30.05Q68.75 32.15 68.75 35.05Q68.75 35.20 68.88 35.33Q69 35.45 69.15 35.45L73.30 35.45Q75.60 35.45 76.85 34.17Q78.10 32.90 78.10 30.80ZM120.40 23.70L119.60 23.50L112.55 46.85Q112.50 47.10 112.97 47.10Q113.45 47.10 113.35 46.85L106.20 23.85Q106.10 23.55 105.80 23.55Q105.50 23.55 105.40 23.85L98.20 46.85Q98.15 47.10 98.63 47.10Q99.10 47.10 99 46.85L91.80 23.50L91 23.70L98.20 47.05Q98.30 47.35 98.60 47.35Q98.90 47.35 99 47.05L106.20 24.05Q106.30 23.80 105.83 23.80Q105.35 23.80 105.40 24.05L112.55 47.05Q112.65 47.35 112.95 47.35Q113.25 47.35 113.35 47.05L120.40 23.70M86.20 20.15L85.80 20.85L91.20 23.95Q91.30 24 91.42 24Q91.55 24 91.60 23.95L96.20 20.85L95.80 20.15L91.20 23.25Q91.10 23.30 91.40 23.30Q91.70 23.30 91.60 23.25L86.20 20.15M115.95 20.20L115.45 20.80L119.75 23.90Q119.85 23.95 119.97 23.97Q120.10 24 120.20 23.95L125.45 20.85L125.05 20.15L119.80 23.25Q119.70 23.30 120.03 23.32Q120.35 23.35 120.25 23.30L115.95 20.20M103.20 20.25L102.60 20.75L105.50 24.20Q105.60 24.35 105.80 24.35Q106 24.35 106.10 24.20L109.15 20.75L108.55 20.25L105.50 23.70Q105.40 23.80 105.80 23.82Q106.20 23.85 106.10 23.70L103.20 20.25M105.25 33.70L106.05 33.70L106.20 23.95L105.40 23.95L105.25 33.70M95.40 49.20L95.90 49.80L98.85 47.25Q98.95 47.15 98.58 47.13Q98.20 47.10 98.30 47.25L100.75 49.80L101.35 49.20L98.90 46.65Q98.80 46.55 98.63 46.55Q98.45 46.55 98.35 46.65L95.40 49.20M109.95 49.20L110.45 49.80L113.20 47.25Q113.35 47.15 112.95 47.15Q112.55 47.15 112.65 47.25L115.30 49.80L115.90 49.20L113.25 46.65Q113.10 46.55 112.95 46.55Q112.80 46.55 112.70 46.65L109.95 49.20M99.25 36.20L98.45 36.20L98.20 46.95L99 46.95L99.25 36.20M113.40 35.95L112.60 35.95L112.55 46.95L113.35 46.95L113.40 35.95M101.45 49.50Q101.45 48.60 101.90 46.77Q102.35 44.95 103.40 41.80Q104.45 38.65 106.05 33.85L105.25 33.85Q106.95 38.75 107.92 41.90Q108.90 45.05 109.35 46.85Q109.80 48.65 109.85 49.55Q109.85 49.70 109.97 49.80Q110.10 49.90 110.25 49.90L115.60 49.90Q115.80 49.90 115.90 49.77Q116 49.65 116 49.50Q116 48.90 116.17 48.02Q116.35 47.15 116.80 45.65Q117.25 44.15 118.05 41.70Q118.85 39.25 120.05 35.50Q121.35 31.45 122.22 28.85Q123.10 26.25 123.70 24.70Q124.30 23.15 124.72 22.25Q125.15 21.35 125.60 20.70Q125.70 20.50 125.60 20.30Q125.50 20.10 125.25 20.10L115.70 20.10Q115.50 20.10 115.38 20.27Q115.25 20.45 115.35 20.70Q115.75 21.45 115.78 22.38Q115.80 23.30 115.47 24.90Q115.15 26.50 114.45 29.10Q113.75 31.70 112.60 35.85L113.40 35.80Q112 31.60 111.15 28.97Q110.30 26.35 109.90 24.77Q109.50 23.20 109.38 22.25Q109.25 21.30 109.25 20.50Q109.25 20.30 109.13 20.20Q109 20.10 108.85 20.10L102.90 20.10Q102.75 20.10 102.63 20.20Q102.50 20.30 102.50 20.50Q102.50 21.30 102.35 22.22Q102.20 23.15 101.83 24.75Q101.45 26.35 100.63 29.05Q99.80 31.75 98.45 36.10L99.25 36.10Q97.90 31.85 97.15 29.17Q96.40 26.50 96.10 24.90Q95.80 23.30 95.90 22.35Q96 21.40 96.35 20.65Q96.45 20.45 96.35 20.27Q96.25 20.10 96 20.10L86 20.10Q85.80 20.10 85.67 20.30Q85.55 20.50 85.65 20.70Q86.10 21.35 86.53 22.25Q86.95 23.15 87.53 24.70Q88.10 26.25 88.97 28.85Q89.85 31.45 91.15 35.50Q92.40 39.30 93.17 41.77Q93.95 44.25 94.38 45.73Q94.80 47.20 95 48.08Q95.20 48.95 95.25 49.55Q95.30 49.70 95.40 49.80Q95.50 49.90 95.65 49.90L101.05 49.90Q101.25 49.90 101.35 49.77Q101.45 49.65 101.45 49.50M100.65 49.50L101.05 49.10L95.65 49.10L96.05 49.45Q96 48.85 95.80 47.98Q95.60 47.10 95.17 45.60Q94.75 44.10 93.97 41.60Q93.20 39.10 91.95 35.30Q90.60 31.20 89.70 28.55Q88.80 25.90 88.22 24.32Q87.65 22.75 87.22 21.85Q86.80 20.95 86.35 20.30L86 20.90L96 20.90L95.65 20.35Q95.25 21.15 95.13 22.10Q95 23.05 95.25 24.65Q95.50 26.25 96.28 29.02Q97.05 31.80 98.45 36.30Q98.55 36.60 98.85 36.60Q99.15 36.60 99.25 36.30Q100.60 31.90 101.42 29.15Q102.25 26.40 102.63 24.80Q103 23.20 103.15 22.25Q103.30 21.30 103.30 20.50L102.90 20.90L108.85 20.90L108.45 20.50Q108.45 21.30 108.58 22.25Q108.70 23.20 109.10 24.82Q109.50 26.45 110.35 29.15Q111.20 31.85 112.60 36.10Q112.70 36.35 113.03 36.35Q113.35 36.35 113.40 36.05Q114.60 31.55 115.33 28.82Q116.05 26.10 116.35 24.52Q116.65 22.95 116.55 22.02Q116.45 21.10 116.05 20.30L115.70 20.90L125.25 20.90L124.90 20.30Q124.45 20.95 124.03 21.85Q123.60 22.75 123 24.32Q122.40 25.90 121.50 28.55Q120.60 31.20 119.25 35.30Q118 39.20 117.20 41.67Q116.40 44.15 115.95 45.65Q115.50 47.15 115.35 48.02Q115.20 48.90 115.20 49.50L115.60 49.10L110.25 49.10L110.65 49.45Q110.60 48.55 110.15 46.73Q109.70 44.90 108.72 41.70Q107.75 38.50 106.05 33.55Q105.95 33.30 105.65 33.30Q105.35 33.30 105.25 33.55Q103.60 38.55 102.58 41.75Q101.55 44.95 101.10 46.77Q100.65 48.60 100.65 49.50ZM141.05 34.90L141.05 34.10L131.80 34.10L131.80 34.90L141.05 34.90M142.35 24.20L142.45 23.40Q140.85 23.25 138.85 23.17Q136.85 23.10 134.97 23.07Q133.10 23.05 131.80 23.15Q131.60 23.15 131.50 23.27Q131.40 23.40 131.40 23.55L131.40 34.50Q131.40 34.50 131.40 34.50Q131.40 34.50 131.40 34.50L131.40 46.45Q131.40 46.60 131.50 46.73Q131.60 46.85 131.80 46.85Q133.10 46.90 134.95 46.90Q136.80 46.90 138.75 46.83Q140.70 46.75 142.35 46.60L142.25 45.80Q140.65 45.95 138.72 46.02Q136.80 46.10 134.95 46.10Q133.10 46.10 131.80 46.05Q131.65 46.05 131.93 46.33Q132.20 46.60 132.20 46.45L132.20 34.50Q132.20 34.50 132.20 34.50Q132.20 34.50 132.20 34.50L132.20 23.55Q132.20 23.40 131.93 23.67Q131.65 23.95 131.80 23.95Q133.10 23.85 134.97 23.88Q136.85 23.90 138.82 23.97Q140.80 24.05 142.35 24.20M145.80 20.75L145.20 20.25L142.10 23.55Q142.05 23.60 142.03 23.77Q142 23.95 142.10 24.05L145.20 28.20L145.80 27.70L142.70 23.55Q142.65 23.45 142.63 23.80Q142.60 24.15 142.70 24.05L145.80 20.75M146.70 41.75L146.10 41.25L142 45.95Q141.90 46.05 141.90 46.20Q141.90 46.35 142 46.45L145.10 49.75L145.70 49.25L142.60 45.95Q142.50 45.85 142.50 46.20Q142.50 46.55 142.60 46.45L146.70 41.75M144.45 30.80L143.85 30.30L140.75 34.25Q140.65 34.35 140.65 34.50Q140.65 34.65 140.75 34.75L143.85 38.65L144.45 38.15L141.35 34.25Q141.30 34.15 141.30 34.50Q141.30 34.85 141.35 34.75L144.45 30.80M127.20 20.15L126.80 20.85L131.60 23.90Q131.60 23.90 131.57 23.88Q131.55 23.85 131.55 23.85L135.10 26.75L135.60 26.15L132.05 23.25Q132.05 23.25 132.05 23.22Q132.05 23.20 132 23.20L127.20 20.15M126.80 49.15L127.20 49.85L132 46.80Q132.05 46.80 132.05 46.77Q132.05 46.75 132.05 46.75L135.65 43.85L135.15 43.25L131.55 46.15Q131.55 46.15 131.57 46.13Q131.60 46.10 131.60 46.10L126.80 49.15M135.45 31.95L134.95 31.35L131.55 34.20Q131.40 34.30 131.40 34.50Q131.40 34.70 131.55 34.80L134.95 37.65L135.45 37.05L132.05 34.20Q131.90 34.10 131.90 34.50Q131.90 34.90 132.05 34.80L135.45 31.95M127 49.90L145.40 49.90Q145.55 49.90 145.65 49.80Q145.75 49.70 145.80 49.55L146.80 41.55Q146.85 41.30 146.63 41.15Q146.40 41 146.15 41.20Q145.35 41.80 144.25 42.27Q143.15 42.75 141.10 42.98Q139.05 43.20 135.40 43.15L135.80 43.55Q135.75 42.35 135.70 40.85Q135.65 39.35 135.60 37.35L135.20 37.75Q138.35 37.80 140.03 37.90Q141.70 38 142.53 38.20Q143.35 38.40 143.95 38.75Q144.20 38.85 144.38 38.73Q144.55 38.60 144.55 38.40L144.55 30.55Q144.55 30.30 144.38 30.20Q144.20 30.10 143.95 30.20Q143.35 30.55 142.50 30.75Q141.65 30.95 140 31.07Q138.35 31.20 135.20 31.25L135.60 31.65Q135.65 30.05 135.68 28.75Q135.70 27.45 135.75 26.45L135.35 26.85Q138.90 26.80 140.80 27.02Q142.70 27.25 143.68 27.60Q144.65 27.95 145.30 28.35Q145.55 28.45 145.72 28.32Q145.90 28.20 145.90 28L145.90 20.50Q145.90 20.35 145.78 20.22Q145.65 20.10 145.50 20.10L127 20.10Q126.80 20.10 126.67 20.27Q126.55 20.45 126.65 20.70Q127 21.35 127.25 22.20Q127.50 23.05 127.65 24.50Q127.80 25.95 127.88 28.38Q127.95 30.80 127.95 34.55Q127.95 38.60 127.88 41.17Q127.80 43.75 127.65 45.33Q127.50 46.90 127.25 47.77Q127 48.65 126.65 49.30Q126.55 49.50 126.67 49.70Q126.80 49.90 127 49.90M127 49.10L127.35 49.70Q127.70 49 127.95 48.10Q128.20 47.20 128.38 45.60Q128.55 44 128.65 41.35Q128.75 38.70 128.75 34.55Q128.75 30.70 128.65 28.22Q128.55 25.75 128.38 24.25Q128.20 22.75 127.95 21.85Q127.70 20.95 127.35 20.30L127 20.90L145.50 20.90L145.10 20.50L145.10 28L145.70 27.65Q145 27.25 143.97 26.88Q142.95 26.50 140.97 26.25Q139 26 135.35 26.05Q135.20 26.05 135.07 26.15Q134.95 26.25 134.95 26.45Q134.90 27.45 134.88 28.75Q134.85 30.05 134.80 31.65Q134.80 31.80 134.93 31.93Q135.05 32.05 135.20 32.05Q138.50 32 140.22 31.85Q141.95 31.70 142.82 31.47Q143.70 31.25 144.35 30.90L143.75 30.55L143.75 38.40L144.35 38.05Q143.70 37.70 142.82 37.48Q141.95 37.25 140.22 37.13Q138.50 37 135.20 36.95Q135.05 36.95 134.93 37.08Q134.80 37.20 134.80 37.35Q134.85 39.35 134.90 40.85Q134.95 42.35 135 43.55Q135 43.75 135.13 43.85Q135.25 43.95 135.40 43.95Q139.20 44 141.35 43.75Q143.50 43.50 144.65 42.98Q145.80 42.45 146.65 41.80L146 41.45L145 49.45L145.40 49.10L127 49.10ZM155.50 47L162.90 47Q162.90 47 162.90 47Q162.90 47 162.90 47Q166.15 47 168.17 45.23Q170.20 43.45 170.20 40.70Q170.20 40.70 170.20 40.70Q170.20 40.70 170.20 40.70Q170.20 37.75 167.88 35.98Q165.55 34.20 161.70 34.20Q161.30 34.20 161.30 34.60Q161.30 35 161.70 35Q165.05 35 167.13 33.33Q169.20 31.65 169.20 28.85Q169.20 28.85 169.20 28.85Q169.20 28.85 169.20 28.85Q169.20 26.25 167.27 24.63Q165.35 23 162.05 23Q162.05 23 162.05 23Q162.05 23 162.05 23L155.50 23Q155.35 23 155.22 23.13Q155.10 23.25 155.10 23.40L155.10 34.60Q155.10 34.60 155.10 34.60Q155.10 34.60 155.10 34.60L155.10 46.60Q155.10 46.75 155.22 46.88Q155.35 47 155.50 47M155.50 46.20Q155.35 46.20 155.63 46.48Q155.90 46.75 155.90 46.60L155.90 34.60Q155.90 34.60 155.90 34.60Q155.90 34.60 155.90 34.60L155.90 23.40Q155.90 23.25 155.63 23.52Q155.35 23.80 155.50 23.80L162.05 23.80Q162.05 23.80 162.05 23.80Q162.05 23.80 162.05 23.80Q165 23.80 166.70 25.17Q168.40 26.55 168.40 28.85Q168.40 28.85 168.40 28.85Q168.40 28.85 168.40 28.85Q168.40 31.35 166.52 32.77Q164.65 34.20 161.70 34.20Q161.30 34.20 161.30 34.60Q161.30 35 161.70 35Q165.15 35 167.27 36.52Q169.40 38.05 169.40 40.70Q169.40 40.70 169.40 40.70Q169.40 40.70 169.40 40.70Q169.40 43.15 167.57 44.67Q165.75 46.20 162.90 46.20Q162.90 46.20 162.90 46.20Q162.90 46.20 162.90 46.20L155.50 46.20M159.35 44L158.85 43.40L155.25 46.30Q155.25 46.30 155.27 46.27Q155.30 46.25 155.30 46.25L150.50 49.15L150.90 49.85L155.70 46.95Q155.70 46.95 155.72 46.92Q155.75 46.90 155.75 46.90L159.35 44M150.90 20.15L150.50 20.85L155.30 23.75Q155.30 23.75 155.27 23.72Q155.25 23.70 155.25 23.70L158.85 26.60L159.35 26L155.75 23.10Q155.75 23.10 155.72 23.07Q155.70 23.05 155.70 23.05L150.90 20.15M159.15 32.20L158.65 31.60L155.25 34.30Q155.10 34.40 155.10 34.60Q155.10 34.80 155.25 34.90L158.65 37.65L159.15 37.05L155.75 34.30Q155.60 34.20 155.60 34.60Q155.60 35 155.75 34.90L159.15 32.20M155.50 34.20L155.50 35Q156.80 35 158.32 35Q159.85 35 161.70 35Q161.70 35 161.70 35Q161.70 35 161.70 35Q162.85 34.95 164.05 34.90Q165.25 34.85 166.60 34.80Q167.95 34.75 169.45 34.70L169.45 33.90Q168.35 33.95 167.13 34Q165.90 34.05 164.55 34.10Q163.20 34.15 161.70 34.20Q161.70 34.20 161.70 34.20Q161.70 34.20 161.70 34.20Q160.45 34.20 158.92 34.20Q157.40 34.20 155.50 34.20M150.70 49.90L163 49.90Q166.20 49.90 168.63 48.75Q171.05 47.60 172.42 45.58Q173.80 43.55 173.80 40.90Q173.80 38.55 172.72 36.80Q171.65 35.05 169.65 33.95L169.70 34.65Q171.15 33.60 171.97 32.08Q172.80 30.55 172.80 28.55Q172.80 24.80 169.85 22.45Q166.90 20.10 161.80 20.10L150.70 20.10Q150.50 20.10 150.38 20.27Q150.25 20.45 150.35 20.70Q150.70 21.35 150.95 22.20Q151.20 23.05 151.35 24.50Q151.50 25.95 151.57 28.38Q151.65 30.80 151.65 34.55Q151.65 38.60 151.57 41.17Q151.50 43.75 151.35 45.33Q151.20 46.90 150.95 47.77Q150.70 48.65 150.35 49.30Q150.25 49.50 150.38 49.70Q150.50 49.90 150.70 49.90M162.30 26.70Q163.45 26.70 164.13 27.35Q164.80 28 164.80 29.15Q164.80 30.20 164.10 30.85Q163.40 31.50 162.30 31.50L158.90 31.50L159.30 31.90Q159.35 30.15 159.40 28.77Q159.45 27.40 159.50 26.35L159.10 26.70L162.30 26.70M162.80 37.75Q164.20 37.75 165 38.48Q165.80 39.20 165.80 40.50Q165.80 41.80 164.95 42.55Q164.10 43.30 162.80 43.30L159.10 43.30L159.50 43.70Q159.45 42.50 159.40 40.92Q159.35 39.35 159.30 37.35L158.90 37.75L162.80 37.75M150.70 49.10L151.05 49.70Q151.40 49 151.65 48.10Q151.90 47.20 152.07 45.60Q152.25 44 152.35 41.35Q152.45 38.70 152.45 34.55Q152.45 30.65 152.35 28.17Q152.25 25.70 152.07 24.22Q151.90 22.75 151.65 21.85Q151.40 20.95 151.05 20.30L150.70 20.90L161.80 20.90Q166.55 20.90 169.27 23Q172 25.10 172 28.55Q172 30.30 171.25 31.68Q170.50 33.05 169.20 33.95Q169.05 34.10 169.05 34.33Q169.05 34.55 169.25 34.65Q171.10 35.65 172.05 37.23Q173 38.80 173 40.90Q173 43.35 171.72 45.20Q170.45 47.05 168.20 48.08Q165.95 49.10 163 49.10L150.70 49.10M162.30 25.90L159.10 25.90Q158.95 25.90 158.82 26Q158.70 26.10 158.70 26.25Q158.65 27.35 158.60 28.75Q158.55 30.15 158.50 31.90Q158.50 32.05 158.63 32.17Q158.75 32.30 158.90 32.30L162.30 32.30Q163.70 32.30 164.65 31.40Q165.60 30.50 165.60 29.15Q165.60 27.70 164.72 26.80Q163.85 25.90 162.30 25.90M162.80 36.95L158.90 36.95Q158.75 36.95 158.63 37.08Q158.50 37.20 158.50 37.35Q158.55 39.35 158.60 40.92Q158.65 42.50 158.70 43.70Q158.70 43.90 158.82 44Q158.95 44.10 159.10 44.10L162.80 44.10Q164.40 44.10 165.50 43.10Q166.60 42.10 166.60 40.50Q166.60 38.90 165.57 37.92Q164.55 36.95 162.80 36.95ZM179.20 46L178.90 46.80Q179.80 47.10 180.70 47.23Q181.60 47.35 182.40 47.35Q182.40 47.35 182.40 47.35Q182.40 47.35 182.40 47.35Q186.15 47.30 188.22 45.02Q190.30 42.75 190.30 39Q190.30 39 190.30 39Q190.30 39 190.30 39L190.30 23.60L189.50 23.60L189.50 39Q189.50 39 189.50 39Q189.50 39 189.50 39Q189.50 42.45 187.67 44.48Q185.85 46.50 182.40 46.55Q182.40 46.55 182.40 46.55Q182.40 46.55 182.40 46.55Q181.65 46.55 180.85 46.42Q180.05 46.30 179.20 46M185.30 20.15L184.90 20.85L189.70 23.95Q189.80 24 189.92 24Q190.05 24 190.10 23.95L194.85 20.85L194.45 20.15L189.70 23.25Q189.60 23.30 189.90 23.30Q190.20 23.30 190.10 23.25L185.30 20.15M175.70 48.70L176.20 49.30L179.30 46.70Q179.40 46.60 179.45 46.45Q179.50 46.30 179.40 46.20L176.30 40.55L175.60 40.95L178.70 46.60Q178.80 46.70 178.85 46.35Q178.90 46 178.80 46.10L175.70 48.70M184.75 20.70Q185.10 21.35 185.35 22.20Q185.60 23.05 185.75 24.50Q185.90 25.95 185.97 28.38Q186.05 30.80 186.05 34.55L186.05 39Q186.05 41.30 185.02 42.40Q184.00 43.50 182.10 43.50Q180.75 43.50 179.27 42.80Q177.80 42.10 176.25 40.45Q176.05 40.25 175.80 40.38Q175.55 40.50 175.55 40.75L175.55 49Q175.55 49.10 175.62 49.23Q175.70 49.35 175.80 49.40Q177.65 50 179.40 50.20Q181.15 50.40 182.70 50.40Q186.30 50.35 188.75 48.85Q191.20 47.35 192.45 44.77Q193.70 42.20 193.70 38.95L193.70 34.55Q193.70 30.80 193.77 28.38Q193.85 25.95 194.00 24.50Q194.15 23.05 194.40 22.20Q194.65 21.35 195.00 20.70Q195.10 20.45 195.00 20.27Q194.90 20.10 194.65 20.10L185.10 20.10Q184.90 20.10 184.77 20.27Q184.65 20.45 184.75 20.70M185.45 20.30L185.10 20.90L194.65 20.90L194.30 20.30Q193.95 20.95 193.70 21.85Q193.45 22.75 193.27 24.25Q193.10 25.75 193.00 28.22Q192.90 30.70 192.90 34.55L192.90 38.95Q192.90 42 191.75 44.40Q190.60 46.80 188.32 48.17Q186.05 49.55 182.70 49.60Q181.25 49.60 179.55 49.40Q177.85 49.20 176.10 48.60L176.35 49L176.35 40.75L175.65 41.05Q177.35 42.75 178.97 43.52Q180.60 44.30 182.10 44.30Q184.30 44.30 185.57 42.98Q186.85 41.65 186.85 39L186.85 34.55Q186.85 30.70 186.75 28.22Q186.65 25.75 186.47 24.25Q186.30 22.75 186.05 21.85Q185.80 20.95 185.45 20.30ZM212.45 46.70Q209.35 46.70 207.00 45.23Q204.65 43.75 203.32 41.10Q202.00 38.45 202.00 34.95Q202.00 34.95 202.00 34.95Q202.00 34.95 202.00 34.95Q202.00 31.45 203.32 28.82Q204.65 26.20 207.00 24.75Q209.35 23.30 212.45 23.30Q212.45 23.30 212.45 23.30Q212.45 23.30 212.45 23.30Q215.55 23.30 217.90 24.77Q220.25 26.25 221.57 28.85Q222.90 31.45 222.90 34.95Q222.90 34.95 222.90 34.95Q222.90 34.95 222.90 34.95Q222.90 38.45 221.57 41.10Q220.25 43.75 217.90 45.23Q215.55 46.70 212.45 46.70Q212.45 46.70 212.45 46.70Q212.45 46.70 212.45 46.70M212.45 47.50Q212.45 47.50 212.45 47.50Q212.45 47.50 212.45 47.50Q215.75 47.50 218.27 45.92Q220.80 44.35 222.25 41.52Q223.70 38.70 223.70 34.95Q223.70 34.95 223.70 34.95Q223.70 34.95 223.70 34.95Q223.70 31.20 222.25 28.40Q220.80 25.60 218.27 24.05Q215.75 22.50 212.45 22.50Q212.45 22.50 212.45 22.50Q212.45 22.50 212.45 22.50Q209.15 22.50 206.62 24.05Q204.10 25.60 202.65 28.40Q201.20 31.20 201.20 34.95Q201.20 34.95 201.20 34.95Q201.20 34.95 201.20 34.95Q201.20 38.70 202.65 41.52Q204.10 44.35 206.62 45.92Q209.15 47.50 212.45 47.50M212.45 44.45Q215.85 44.45 217.95 41.90Q220.05 39.35 220.05 34.95Q220.05 30.55 217.95 28.05Q215.85 25.55 212.45 25.55Q209.10 25.55 206.97 28.02Q204.85 30.50 204.85 34.95Q204.85 39.35 206.97 41.90Q209.10 44.45 212.45 44.45M212.45 49.70Q208.30 49.70 205.12 47.80Q201.95 45.90 200.15 42.58Q198.35 39.25 198.35 34.95Q198.35 30.65 200.15 27.35Q201.95 24.05 205.12 22.17Q208.30 20.30 212.45 20.30Q216.55 20.30 219.72 22.17Q222.90 24.05 224.72 27.35Q226.55 30.65 226.55 34.95Q226.55 39.25 224.72 42.58Q222.90 45.90 219.72 47.80Q216.55 49.70 212.45 49.70M212.45 43.65Q209.40 43.65 207.52 41.33Q205.65 39 205.65 34.95Q205.65 30.90 207.52 28.63Q209.40 26.35 212.45 26.35Q215.55 26.35 217.40 28.65Q219.25 30.95 219.25 34.95Q219.25 39 217.40 41.33Q215.55 43.65 212.45 43.65M212.45 50.50Q216.75 50.50 220.12 48.50Q223.50 46.50 225.42 43Q227.35 39.50 227.35 34.95Q227.35 30.40 225.42 26.92Q223.50 23.45 220.12 21.47Q216.75 19.50 212.45 19.50Q208.10 19.50 204.72 21.47Q201.35 23.45 199.45 26.95Q197.55 30.45 197.55 34.95Q197.55 39.50 199.45 43Q201.35 46.50 204.72 48.50Q208.10 50.50 212.45 50.50ZM235.80 23.60L235.00 23.60L235.00 34.50Q235.00 34.50 235.00 34.50Q235.00 34.50 235.00 34.50L235.00 46.40L235.80 46.40L235.80 34.50Q235.80 34.50 235.80 34.50Q235.80 34.50 235.80 34.50L235.80 23.60M250.25 46.65L250.85 46.15L243.45 36.50Q243.45 36.50 243.45 36.50Q243.45 36.50 243.45 36.50Q242.60 35.35 241.77 34.83Q240.95 34.30 239.52 34.15Q238.10 34 235.40 34.10Q235.00 34.10 235.02 34.50Q235.05 34.90 235.40 34.90Q237.40 34.85 238.65 34.73Q239.90 34.60 240.70 34.30Q241.50 34 242.15 33.42Q242.80 32.85 243.60 31.90Q243.60 31.90 243.60 31.90Q243.60 31.90 243.60 31.90L250.60 23.85L250.00 23.35L243.00 31.40Q243.00 31.40 243.00 31.40Q243.00 31.40 243.00 31.40Q242.25 32.25 241.65 32.77Q241.05 33.30 240.32 33.55Q239.60 33.80 238.45 33.92Q237.30 34.05 235.40 34.10Q235.00 34.10 235.02 34.50Q235.05 34.90 235.40 34.90Q237.90 34.80 239.22 34.92Q240.55 35.05 241.30 35.50Q242.05 35.95 242.85 37Q242.85 37 242.85 37Q242.85 37 242.85 37L250.25 46.65M239.05 32.60L238.65 31.90L235.20 34.15Q235.00 34.30 235.00 34.52Q235.00 34.75 235.20 34.85L238.65 36.95L239.05 36.25L235.60 34.15Q235.40 34.05 235.40 34.50Q235.40 34.95 235.60 34.85L239.05 32.60M240.00 49.85L240.40 49.15L235.60 46.05Q235.55 46 235.42 46Q235.30 46 235.20 46.05L230.45 49.15L230.85 49.85L235.60 46.75Q235.70 46.65 235.40 46.65Q235.10 46.65 235.20 46.75L240.00 49.85M230.85 20.15L230.45 20.85L235.20 23.95Q235.30 24 235.42 24Q235.55 24 235.60 23.95L240.40 20.85L240.00 20.15L235.20 23.25Q235.10 23.30 235.40 23.30Q235.70 23.30 235.60 23.25L230.85 20.15M258.45 49.85L258.75 49.15L250.70 46.05Q250.60 45.95 250.50 45.98Q250.40 46 250.30 46.10L247.00 49.20L247.50 49.80L250.80 46.70Q250.90 46.60 250.60 46.65Q250.30 46.70 250.40 46.75L258.45 49.85M248.15 20.25L247.55 20.75L250.00 23.85Q250.10 23.95 250.22 23.97Q250.35 24 250.45 23.95L258.35 20.85L258.05 20.15L250.15 23.25Q250.05 23.30 250.37 23.38Q250.70 23.45 250.60 23.35L248.15 20.25M245.25 34.40L245.15 33.60Q243.55 33.70 241.92 33.83Q240.30 33.95 238.67 34Q237.05 34.05 235.40 34.10L235.40 34.90Q237.05 34.85 238.67 34.80Q240.30 34.75 241.95 34.63Q243.60 34.50 245.25 34.40M230.65 49.90L240.20 49.90Q240.45 49.90 240.55 49.70Q240.65 49.50 240.55 49.30Q240.25 48.70 240.00 47.90Q239.75 47.10 239.60 45.73Q239.45 44.35 239.35 42.15Q239.25 39.95 239.25 36.60L238.55 36.85Q241.15 40.20 242.72 42.40Q244.30 44.60 245.15 45.98Q246.00 47.35 246.35 48.17Q246.70 49 246.85 49.60Q246.90 49.70 247.00 49.80Q247.10 49.90 247.25 49.90L258.60 49.90Q258.90 49.90 259 49.63Q259.10 49.35 258.85 49.20Q258.05 48.55 257.05 47.65Q256.05 46.75 254.57 45.15Q253.10 43.55 250.92 40.80Q248.75 38.05 245.50 33.75L245.50 34.25Q248.85 30.40 250.97 28.02Q253.10 25.65 254.42 24.30Q255.75 22.95 256.65 22.20Q257.55 21.45 258.45 20.80Q258.70 20.65 258.60 20.38Q258.50 20.10 258.20 20.10L247.85 20.10Q247.70 20.10 247.60 20.20Q247.50 20.30 247.45 20.40Q247.30 21 246.95 21.67Q246.60 22.35 245.72 23.52Q244.85 24.70 243.12 26.72Q241.40 28.75 238.55 32L239.25 32.25Q239.30 28.20 239.45 25.97Q239.60 23.75 239.87 22.60Q240.15 21.45 240.55 20.70Q240.65 20.45 240.55 20.27Q240.45 20.10 240.20 20.10L230.65 20.10Q230.45 20.10 230.32 20.27Q230.20 20.45 230.30 20.70Q230.65 21.35 230.90 22.20Q231.15 23.05 231.30 24.50Q231.45 25.95 231.52 28.38Q231.60 30.80 231.60 34.55Q231.60 38.60 231.52 41.17Q231.45 43.75 231.30 45.33Q231.15 46.90 230.90 47.77Q230.65 48.65 230.30 49.30Q230.20 49.50 230.32 49.70Q230.45 49.90 230.65 49.90M230.65 49.10L231.00 49.70Q231.35 49 231.60 48.10Q231.85 47.20 232.02 45.60Q232.20 44 232.30 41.35Q232.40 38.70 232.40 34.55Q232.40 30.70 232.30 28.22Q232.20 25.75 232.02 24.25Q231.85 22.75 231.60 21.85Q231.35 20.95 231.00 20.30L230.65 20.90L240.20 20.90L239.85 20.30Q239.45 21.10 239.15 22.30Q238.85 23.50 238.67 25.77Q238.50 28.05 238.45 32.25Q238.45 32.50 238.70 32.60Q238.95 32.70 239.15 32.50Q242.10 29.10 243.87 27.02Q245.65 24.95 246.55 23.77Q247.45 22.60 247.77 21.90Q248.10 21.20 248.25 20.60L247.85 20.90L258.20 20.90L257.95 20.20Q257.05 20.85 256.15 21.63Q255.25 22.40 253.92 23.75Q252.60 25.10 250.45 27.47Q248.30 29.85 244.90 33.75Q244.65 34 244.90 34.25Q248.15 38.60 250.35 41.35Q252.55 44.10 254.02 45.73Q255.50 47.35 256.52 48.25Q257.55 49.15 258.35 49.80L258.60 49.10L247.25 49.10L247.65 49.40Q247.50 48.80 247.15 47.98Q246.80 47.15 245.92 45.75Q245.05 44.35 243.42 42.10Q241.80 39.85 239.15 36.35Q239.00 36.10 238.72 36.20Q238.45 36.30 238.45 36.60Q238.45 40.10 238.55 42.35Q238.65 44.60 238.85 46Q239.05 47.40 239.30 48.23Q239.55 49.05 239.85 49.70L240.20 49.10L230.65 49.10ZM266.05 23.60L265.25 23.60L265.25 46.40L266.05 46.40L266.05 23.60M270.20 49.85L270.60 49.15L265.85 46.05Q265.80 46 265.67 46Q265.55 46 265.45 46.05L260.65 49.15L261.05 49.85L265.85 46.75Q265.95 46.65 265.65 46.65Q265.35 46.65 265.45 46.75L270.20 49.85M261.05 20.15L260.65 20.85L265.45 23.95Q265.55 24 265.67 24Q265.80 24 265.85 23.95L270.60 20.85L270.20 20.15L265.45 23.25Q265.35 23.30 265.65 23.30Q265.95 23.30 265.85 23.25L261.05 20.15M260.85 49.90L270.40 49.90Q270.65 49.90 270.75 49.70Q270.85 49.50 270.75 49.30Q270.40 48.65 270.15 47.77Q269.90 46.90 269.75 45.33Q269.60 43.75 269.52 41.17Q269.45 38.60 269.45 34.55Q269.45 30.80 269.52 28.38Q269.60 25.95 269.75 24.50Q269.90 23.05 270.15 22.20Q270.40 21.35 270.75 20.70Q270.85 20.45 270.75 20.27Q270.65 20.10 270.40 20.10L260.85 20.10Q260.65 20.10 260.52 20.27Q260.40 20.45 260.50 20.70Q260.85 21.35 261.10 22.20Q261.35 23.05 261.50 24.50Q261.65 25.95 261.72 28.38Q261.80 30.80 261.80 34.55Q261.80 38.60 261.72 41.17Q261.65 43.75 261.50 45.33Q261.35 46.90 261.10 47.77Q260.85 48.65 260.50 49.30Q260.40 49.50 260.52 49.70Q260.65 49.90 260.85 49.90M260.85 49.10L261.20 49.70Q261.55 49 261.80 48.10Q262.05 47.20 262.22 45.60Q262.40 44 262.50 41.35Q262.60 38.70 262.60 34.55Q262.60 30.70 262.50 28.22Q262.40 25.75 262.22 24.25Q262.05 22.75 261.80 21.85Q261.55 20.95 261.20 20.30L260.85 20.90L270.40 20.90L270.05 20.30Q269.70 20.95 269.45 21.85Q269.20 22.75 269.02 24.25Q268.85 25.75 268.75 28.22Q268.65 30.70 268.65 34.55Q268.65 38.70 268.75 41.35Q268.85 44 269.02 45.60Q269.20 47.20 269.45 48.10Q269.70 49 270.05 49.70L270.40 49.10L260.85 49.10Z"/></g></g></svg>